<?xml version="1.0" encoding="utf-8"?>
<svg id="visual" viewBox="0 0 900 600" width="900" height="600" version="1.1" xmlns="http://www.w3.org/2000/svg">
  <path stroke-width="0" d="M 419.71 -10.172 C 423.783 -10.676 429.084 -10.027 432.641 -8.743 C 435.811 -7.599 438.53 -5.964 440.353 -3.386 C 442.465 -0.4 444.085 5.17 443.678 8.76 C 443.311 11.99 440.159 11.999 438.897 17.333 C 436.023 29.485 439.385 80.212 435.437 92.346 C 433.625 97.914 430.943 96.214 428.235 100.918 C 423.401 109.319 418.901 131.352 410.799 143.784 C 403.114 155.576 392.843 166.289 381.558 174.145 C 370.654 181.737 355.076 187.675 344.538 190.577 C 336.494 192.792 333.323 192.397 323.558 192.72 C 307.99 193.237 278.774 187.071 255.714 191.291 C 230.486 195.909 195.753 216.689 178.427 222.011 C 168.272 225.129 165.347 225.502 156.657 226.297 C 145.731 227.298 131.447 227.479 117.087 226.297 C 100.804 224.958 83.464 222.231 63.723 217.724 C 40.412 212.403 -3.349 203.275 -14.38 194.864 C -20.181 190.439 -19.881 185.178 -19.332 180.932 C -19.143 179.465 -18.587 177.915 -17.777 176.424 C -17.777 176.424 -17.777 176.423 -17.777 176.423 C -19.114 169.977 -18.574 160.317 -17.998 147.846 C -17.154 129.613 -14.769 95.01 -11.297 74.263 C -8.463 57.341 2.061 37.941 -0.322 31.04 C -1.59 27.374 -7.198 29.034 -9.24 26.397 C -11.706 23.217 -13.331 16.033 -12.581 12.109 C -11.941 8.759 -9.155 5.869 -6.589 3.893 C -4.15 2.014 -2.493 1.137 2.267 0.321 C 10.994 -1.176 28.079 1.112 46.675 -0.394 C 72.457 -2.481 106.715 -11.201 145.898 -13.967 C 194.889 -17.428 302.015 -7.991 321.522 -16.11 C 328.782 -19.133 324.163 -25.375 327.082 -28.255 C 329.786 -30.926 334.361 -32.599 337.944 -33.257 C 341.208 -33.856 344.72 -33.455 347.641 -32.542 C 350.51 -31.645 353.413 -30.167 355.348 -27.898 C 357.519 -25.352 355.836 -19.203 359.465 -17.54 C 364.561 -15.201 380.858 -22.28 388.105 -21.111 C 393.629 -20.219 398.141 -16.414 400.675 -14.324 C 402.356 -12.939 402.771 -11.248 403.531 -10.396 C 404.015 -9.852 404.234 -9.952 404.751 -9.324 C 405.408 -8.524 406.717 -6.99 407.719 -5.318 C 407.946 -5.5 408.185 -5.688 408.437 -5.886 C 411.202 -8.071 415.727 -9.68 419.71 -10.172 Z" style="stroke-width: 2px; fill: rgb(150, 237, 255);"/>
  <path stroke-width="0" d="M 452.44 -13.512 C 454.257 -13.792 457.01 -13.878 459.508 -13.575 C 464.272 -15.341 469.388 -16.842 473.974 -17.819 C 484.982 -20.163 500.658 -19.421 509.473 -19.211 C 515.545 -19.067 516.417 -17.567 523.394 -17.819 C 535.978 -18.274 566.093 -24.895 583.951 -26.172 C 599.078 -27.253 608.338 -26.816 624.322 -26.172 C 644.612 -25.354 681.646 -22.293 697.408 -20.603 C 706.593 -19.619 711.562 -19.466 716.202 -17.819 C 719.654 -16.593 718.879 -13.927 723.858 -12.947 C 735.332 -10.687 781.216 -17.736 796.944 -16.427 C 806.195 -15.657 807.537 -12.507 815.738 -11.555 C 827.38 -10.202 851.801 -10.86 862.373 -11.555 C 868.921 -11.984 872.136 -14.122 876.294 -13.643 C 880.052 -13.21 884.169 -11.361 886.387 -9.466 C 888.177 -7.937 887.946 -4.707 889.519 -3.898 C 891.084 -3.094 893.532 -5.005 895.784 -4.594 C 898.454 -4.106 902.374 -3.002 904.485 -0.418 C 906.993 2.654 908.555 9.925 908.661 13.852 C 908.743 16.906 906.937 17.518 906.573 21.508 C 905.9 28.887 907.877 42.107 907.965 58.399 C 908.096 82.56 905.893 135.426 905.877 157.239 C 905.867 170.248 906.673 175.07 906.573 184.385 C 906.504 190.776 906.758 198.533 906.387 205.2 C 908.688 207.805 909.664 211.175 909.401 214.446 C 909.08 218.43 905.97 224.744 902.788 227.323 C 899.888 229.674 895.222 230.035 891.651 230.107 C 888.277 230.176 885.353 228.069 881.906 228.019 C 878.192 227.965 875.916 228.3 870.073 230.107 C 859.221 233.465 830.599 248.428 817.869 251.685 C 809.664 253.784 806.004 253.112 799.076 253.077 C 791.132 253.037 781.793 252.397 772.626 250.989 C 762.818 249.483 751.874 247.285 741.999 244.028 C 732.154 240.782 721.637 236.594 713.461 231.499 C 705.954 226.821 700.098 220.836 694.319 215.142 C 688.777 209.68 687.029 203.162 679.354 198.089 C 668.845 191.142 651.122 188.425 632.718 180.687 C 608.949 170.694 572.104 154.03 547.104 141.012 C 525.416 129.719 505.458 118.692 490.027 107.602 C 477.23 98.405 466.387 87.718 459.053 80.107 C 453.817 74.675 450.747 70.914 447.916 66.186 C 445.691 62.473 444.12 60.288 442.92 55.565 C 442.558 54.956 442.161 54.379 441.681 53.834 C 439.643 51.516 437.897 51.726 435.765 48.614 C 432.07 43.221 425.614 29.124 423.236 20.075 C 422.711 18.077 422.255 15.986 421.883 13.887 C 419.472 7.596 417.65 0.66 417.874 -3.237 C 418.14 -7.881 421.479 -11.191 423.79 -13.33 C 425.657 -15.057 427.858 -15.649 430.055 -16.114 C 432.265 -16.583 434.615 -16.806 437.015 -16.114 C 437.973 -15.838 439.004 -15.446 440.047 -14.944 C 440.573 -14.804 441.111 -14.618 441.681 -14.38 C 443.526 -13.61 445.32 -12.927 447.318 -11.177 C 447.402 -11.261 447.485 -11.343 447.568 -11.424 C 449.142 -12.958 450.372 -13.194 452.44 -13.512 Z" style="stroke-width: 2px; fill: rgb(159, 156, 255);"/>
</svg>